<svg xmlns="http://www.w3.org/2000/svg" viewBox="0 0 814 1000">
  <path d="M788.1 340.9c-5.8 4.5-108.2 62.2-108.2 190.5 0 148.4 130.3 200.9 134.2 202.2-.6 3.2-20.7 71.9-68.7 141.9-42.8 61.6-87.5 123.1-155.5 123.1s-85.5-39.5-164-39.5c-76.5 0-103.7 40.8-165.9 40.8s-105.6-57.8-155.5-127.4c-58.3-81.6-104.7-207.8-104.7-328.1 0-192.8 125.2-295.4 248.4-295.4 65.5 0 120 43.4 161.1 43.4 39.2 0 100.3-46 175.1-46 28.3 0 130 2.5 197.7 95.5zm-283-89.8c30.7-36.7 52.5-87.5 52.5-138.3 0-7-0.6-14.2-1.9-20-50.1 1.9-109.6 33.3-145.5 75.1-25.7 29.5-53.2 80.3-53.2 131.9 0 7.7 1.3 15.4 1.9 17.9 3.2 0.6 8.4 1.3 13.5 1.3 45.2 0 102.5-30.1 132.7-67.9z" fill="currentColor"/>
</svg>
